<svg width="48" height="16" viewBox="0 0 48 16" fill="none" xmlns="http://www.w3.org/2000/svg">
<path d="M1.32324 7C0.770957 7 0.323242 7.44772 0.323242 8C0.323242 8.55228 0.770957 9 1.32324 9V7ZM47.0303 8.70711C47.4209 8.31658 47.4209 7.68342 47.0303 7.29289L40.6664 0.928932C40.2759 0.538408 39.6427 0.538408 39.2522 0.928932C38.8616 1.31946 38.8616 1.95262 39.2522 2.34315L44.909 8L39.2522 13.6569C38.8616 14.0474 38.8616 14.6805 39.2522 15.0711C39.6427 15.4616 40.2759 15.4616 40.6664 15.0711L47.0303 8.70711ZM1.32324 8V9H46.3232V8V7H1.32324V8Z" fill="white" fill-opacity="0.17"/>
<path d="M1.32324 7C0.770957 7 0.323242 7.44772 0.323242 8C0.323242 8.55228 0.770957 9 1.32324 9V7ZM47.0303 8.70711C47.4209 8.31658 47.4209 7.68342 47.0303 7.29289L40.6664 0.928932C40.2759 0.538408 39.6427 0.538408 39.2522 0.928932C38.8616 1.31946 38.8616 1.95262 39.2522 2.34315L44.909 8L39.2522 13.6569C38.8616 14.0474 38.8616 14.6805 39.2522 15.0711C39.6427 15.4616 40.2759 15.4616 40.6664 15.0711L47.0303 8.70711ZM1.32324 8V9H46.3232V8V7H1.32324V8Z" fill="url(#paint0_linear_1_262)" fill-opacity="0.4"/>
<defs>
<linearGradient id="paint0_linear_1_262" x1="23.8232" y1="8" x2="49.8903" y2="8" gradientUnits="userSpaceOnUse">
<stop stop-opacity="0"/>
<stop offset="1"/>
</linearGradient>
</defs>
</svg>
